# xmcd
# 
# Track frame offsets:
#     150
#     15416
#     33820
#     51216
#     66734
#     85139
#     104106
#     123877
#     141347
#     159880
#     177225
#     190166
# 
# Disc length: 2837
# 
# Revision: 3
# Processed by: cddbd v1.5.2PL0 Copyright (c) Steve Scherf et al.
# Submitted via: BonkEnc v1.0.8
# 
DISCID=9f0b130c
DTITLE=Ed Motta  - Poptical
DYEAR=2003
DGENRE=MPB
TTITLE0=Minha Casa, Minha Cama, Minha Mesa
TTITLE1=Tem Espaço Na Van
TTITLE2=Eu Avisei
TTITLE3=The Rose That Came to Bloom 
TTITLE4=Que Bom Voltar
TTITLE5=Coincidência
TTITLE6=Rainbow's End
TTITLE7=Pra Você Lembrar
TTITLE8=My Rules
TTITLE9=Fox Do Detetive
TTITLE10=Gifts And Sorrows
TTITLE11=Quem Pode Surpreender?
EXTD=
EXTT0=
EXTT1=
EXTT2=
EXTT3=
EXTT4=
EXTT5=
EXTT6=
EXTT7=
EXTT8=
EXTT9=
EXTT10=
EXTT11=
PLAYORDER=
